HIERARCHY
ROOT root
{
	OFFSET 0.000000 0.000000 0.000000
	CHANNELS 6 Xposition Yposition Zposition Zrotation Yrotation Xrotation
	JOINT lhip
	{
		OFFSET 0.058581 -0.082280 -0.017664
		CHANNELS 3 Zrotation Yrotation Xrotation
		JOINT lknee
		{
			OFFSET 0.043451 -0.386469 0.008037
			CHANNELS 3 Zrotation Yrotation Xrotation
			JOINT lankle
			{
				OFFSET -0.014790 -0.426874 -0.037428
				CHANNELS 3 Zrotation Yrotation Xrotation
				JOINT ltoe
				{
					OFFSET 0.041054 -0.060286 0.122042
					CHANNELS 3 Zrotation Yrotation Xrotation
					End Site
					{
						OFFSET 0.000000 0.000000 0.000000
					}
				}
			}
		}
	}
	JOINT rhip
	{
		OFFSET -0.060310 -0.090513 -0.013543
		CHANNELS 3 Zrotation Yrotation Xrotation
		JOINT rknee
		{
			OFFSET -0.043257 -0.383688 -0.004843
			CHANNELS 3 Zrotation Yrotation Xrotation
			JOINT rankle
			{
				OFFSET 0.019056 -0.420046 -0.034562
				CHANNELS 3 Zrotation Yrotation Xrotation
				JOINT rtoe
				{
					OFFSET -0.034840 -0.062106 0.130323
					CHANNELS 3 Zrotation Yrotation Xrotation
					End Site
					{
						OFFSET 0.000000 0.000000 0.000000
					}
				}
			}
		}
	}
	JOINT lowerback
	{
		OFFSET 0.004439 0.124404 -0.038385
		CHANNELS 3 Zrotation Yrotation Xrotation
		JOINT upperback
		{
			OFFSET 0.004488 0.137956 0.026820
			CHANNELS 3 Zrotation Yrotation Xrotation
			JOINT chest
			{
				OFFSET -0.002265 0.056032 0.002855
				CHANNELS 3 Zrotation Yrotation Xrotation
				JOINT lowerneck
				{
					OFFSET -0.013390 0.211636 -0.033468
					CHANNELS 3 Zrotation Yrotation Xrotation
					JOINT upperneck
					{
						OFFSET 0.010113 0.088937 0.050410
						CHANNELS 3 Zrotation Yrotation Xrotation
						End Site
						{
							OFFSET 0.000000 0.000000 0.000000
						}
					}
				}
				JOINT lclavicle
				{
					OFFSET 0.071702 0.114000 -0.018898
					CHANNELS 3 Zrotation Yrotation Xrotation
					JOINT lshoulder
					{
						OFFSET 0.122921 0.045205 -0.019046
						CHANNELS 3 Zrotation Yrotation Xrotation
						JOINT lelbow
						{
							OFFSET 0.255332 -0.015649 -0.022946
							CHANNELS 3 Zrotation Yrotation Xrotation
							JOINT lwrist
							{
								OFFSET 0.265709 0.012698 -0.007375
								CHANNELS 3 Zrotation Yrotation Xrotation
								End Site
								{
									OFFSET 0.000000 0.000000 0.000000
								}
							}
						}
					}
				}
				JOINT rclavicle
				{
					OFFSET -0.082954 0.112472 -0.023707
					CHANNELS 3 Zrotation Yrotation Xrotation
					JOINT rshoulder
					{
						OFFSET -0.113228 0.046853 -0.008472
						CHANNELS 3 Zrotation Yrotation Xrotation
						JOINT relbow
						{
							OFFSET -0.260127 -0.014369 -0.031269
							CHANNELS 3 Zrotation Yrotation Xrotation
							JOINT rwrist
							{
								OFFSET -0.269108 0.006794 -0.006027
								CHANNELS 3 Zrotation Yrotation Xrotation
								End Site
								{
									OFFSET 0.000000 0.000000 0.000000
								}
							}
						}
					}
				}
			}
		}
	}
}
MOTION
Frames: 11
Frame Time: 0.033333
2.319909 1.004484 1.565217 -87.157453 -3.413670 124.830191 -5.822264 -5.156270 -19.970439 -0.811389 -4.928735 14.450729 5.718996 13.696261 -36.006345 0.000000 -0.000000 0.000000 -3.057248 3.920442 -30.377875 -0.955255 -3.546493 21.044329 9.204360 -2.891125 -32.874908 0.000000 -0.000000 0.000000 -2.520012 -6.418091 23.203174 -3.528121 -5.884266 -21.174461 0.088649 0.195063 -2.201540 -15.289636 -11.544088 45.274979 21.513174 9.785382 -42.900002 -9.539852 7.305160 -1.665101 -40.923088 -1.257249 14.920623 -34.540161 -43.892034 70.938597 23.052742 -22.968179 -19.560791 0.463179 7.470259 5.279727 75.705577 5.309909 20.639515 7.309581 42.883147 47.681882 -36.823811 12.314951 -2.906105 
2.318687 1.004957 1.564653 -87.249424 -3.384608 124.607390 -5.849469 -4.940355 -20.021498 -1.005577 -5.102548 15.092825 5.698278 13.815083 -36.190691 0.000000 -0.000000 0.000000 -2.996883 3.999159 -30.419770 -0.958154 -3.410126 21.669482 9.134580 -2.980364 -33.026510 0.000000 -0.000000 0.000000 -2.706627 -6.496309 23.391974 -3.444616 -5.924061 -21.063614 0.138315 0.218912 -2.191339 -15.143607 -11.401236 45.109131 21.412065 9.893256 -42.721600 -9.526968 7.344806 -1.701049 -40.761631 -1.054072 14.803873 -35.016675 -43.952210 70.774394 23.307222 -21.876818 -19.453061 0.598262 7.528888 5.148262 75.581032 5.342522 20.720574 7.502409 42.841951 47.646336 -36.532153 12.280571 -2.596096 
2.317024 1.004933 1.563630 -87.195664 -3.284071 124.256409 -5.722016 -4.918895 -19.872382 -1.102591 -5.156486 15.859640 5.426268 13.718015 -36.392884 0.000000 -0.000000 0.000000 -2.857619 3.950851 -30.188302 -1.028274 -3.837615 22.259254 8.965361 -2.586072 -33.320080 0.000000 -0.000000 0.000000 -2.585641 -6.496518 23.449519 -3.433471 -6.000265 -20.876686 0.144636 0.187043 -2.339038 -14.829939 -10.406079 45.150833 20.514442 10.623510 -42.358191 -9.724954 7.212178 -1.586748 -40.493485 -0.758773 14.703727 -35.395383 -43.940423 70.864329 23.674207 -21.677252 -19.732460 0.803742 7.556433 5.159143 75.400722 5.392712 20.765609 7.613739 42.675672 47.543019 -37.119584 12.786096 -2.552315 
2.316781 1.005184 1.563702 -87.105975 -3.452596 123.929012 -5.742170 -5.270044 -19.771869 -1.132998 -5.026170 16.308364 5.344472 13.759876 -36.527670 0.000000 -0.000000 0.000000 -3.125196 3.826155 -30.068568 -0.899960 -4.097061 22.699052 9.115598 -2.359883 -33.494104 0.000000 -0.000000 0.000000 -2.584440 -6.825372 23.514201 -3.504660 -6.036783 -20.507897 0.184467 0.114272 -4.637968 -18.349718 -8.138405 53.561593 18.203664 13.043501 -42.350124 -10.189745 6.931542 0.700096 -39.882845 -0.553010 13.500176 -35.596215 -43.731186 71.646324 23.029882 -21.394221 -21.639439 1.023788 8.726428 8.708229 75.570090 6.807321 19.617138 7.039067 42.153141 47.480506 -37.466147 12.329449 -3.608902 
2.317334 1.006928 1.562498 -87.568082 -3.199423 123.635467 -5.329375 -5.149106 -19.714374 -1.362759 -4.288553 16.637660 5.453469 13.601480 -36.457098 0.000000 -0.000000 0.000000 -3.017605 4.149094 -29.909412 -0.905671 -3.826316 22.963613 8.964990 -2.566990 -33.455803 0.000000 -0.000000 0.000000 -2.500000 -6.762313 23.379982 -3.663449 -5.783570 -20.139414 0.151831 0.029062 -5.035603 -18.378232 -6.403139 53.637030 16.443880 14.807628 -41.575061 -10.739195 7.590324 0.214645 -39.405428 -0.434130 13.540354 -35.862057 -43.388495 71.641206 22.524251 -21.094144 -21.239967 1.474822 8.511432 9.020003 75.470856 7.044457 19.989262 6.370597 41.862187 46.805869 -36.544937 12.568324 -3.028148 
2.319467 1.007434 1.562628 -87.801179 -3.197775 123.194465 -5.459660 -4.972139 -19.619288 -1.436487 -4.395109 17.037266 5.299159 13.642976 -36.203764 0.000000 -0.000000 0.000000 -3.078967 4.140311 -29.647955 -0.841498 -3.633953 23.068098 9.043682 -2.672375 -33.485573 0.000000 -0.000000 0.000000 -2.431421 -6.858954 23.883333 -3.794809 -5.730199 -20.378465 0.199895 -0.051999 -5.170329 -17.946475 -2.999689 51.656584 13.332803 17.574711 -41.583248 -11.154331 7.688892 -0.230714 -39.158654 -0.013250 13.322124 -35.662299 -43.054971 72.179451 23.677513 -22.234088 -21.095709 1.537667 8.368310 8.964756 75.526505 7.276218 20.422441 6.022325 41.571810 46.356074 -36.526082 12.853632 -2.882076 
2.322078 1.006942 1.563356 -87.566606 -3.309699 122.961986 -5.366267 -5.427960 -19.569042 -1.607480 -4.806562 17.058142 5.568391 14.339849 -35.904013 0.000000 -0.000000 0.000000 -2.961686 3.647224 -29.486218 -0.695587 -3.168560 22.918753 8.733395 -3.064312 -33.305408 0.000000 -0.000000 0.000000 -2.039433 -7.039612 23.745230 -3.990033 -5.806602 -20.250232 0.305118 -0.207794 -5.135496 -18.546977 0.379410 51.681709 10.064899 21.668576 -41.436128 -11.662419 7.508473 -0.698243 -39.269664 -0.012746 13.067838 -36.996591 -43.605283 69.668288 19.678812 -15.671608 -22.260624 1.726830 8.126815 8.979615 75.008442 7.707411 21.124134 5.937459 41.800799 44.780160 -34.513829 12.006986 -0.935895 
2.324971 1.008235 1.563084 -88.034999 -3.226193 122.685327 -5.379098 -5.017053 -19.543515 -1.596223 -4.052132 17.067467 5.712153 13.691983 -36.002432 0.000000 -0.000000 0.000000 -2.917226 3.871831 -29.441100 -0.810311 -2.837382 22.913825 8.835772 -3.105295 -33.242882 0.000000 -0.000000 0.000000 -2.213002 -6.944088 23.941787 -4.139941 -5.721285 -20.370694 0.462579 -0.259968 -5.390693 -17.876604 4.350864 49.854665 6.899469 25.224575 -40.972461 -12.075244 7.555804 -1.257829 -38.762687 0.200921 12.694402 -36.997526 -42.757518 69.079935 17.475670 -17.520983 -22.056595 2.389518 8.071676 9.219683 74.798911 8.320135 21.578281 5.009943 41.492203 42.748725 -33.093093 13.600807 0.806461 
2.328665 1.008047 1.563480 -88.101492 -3.274654 122.552054 -5.457690 -5.026695 -19.708280 -1.500677 -3.792863 17.035042 5.867321 13.656667 -36.018337 0.000000 -0.000000 0.000000 -3.004049 3.822576 -29.454992 -0.717973 -2.526663 22.694388 8.829171 -3.336615 -33.049944 0.000000 -0.000000 0.000000 -1.905872 -7.000335 23.887245 -4.364169 -5.716242 -20.362951 0.481460 -0.327132 -5.578207 -17.734147 7.592690 49.365483 3.827445 28.607985 -41.601766 -12.655604 7.188083 -1.466580 -38.317692 0.266686 12.366020 -36.854186 -42.411288 68.361134 16.809486 -17.546286 -21.776063 2.367832 8.335333 9.633516 74.888150 8.893193 22.058013 4.176796 41.307564 41.438569 -31.859868 12.996923 0.949457 
2.333493 1.007162 1.564534 -87.826739 -3.482655 122.295160 -5.501647 -5.557098 -19.653772 -1.442485 -3.771046 16.772812 5.860852 13.854164 -35.749360 0.000000 -0.000000 0.000000 -3.286836 3.588405 -29.351409 -0.492217 -2.565799 22.435106 8.969190 -3.440251 -32.838656 0.000000 -0.000000 0.000000 -1.406688 -7.301432 24.229863 -4.476402 -5.903372 -20.621604 0.360977 -0.461947 -5.402366 -17.606388 11.326838 48.380838 0.705199 31.401774 -41.757809 -12.870314 6.859964 -1.765235 -38.220951 0.107355 12.140365 -36.566533 -42.052290 67.830313 17.102388 -17.850145 -21.880656 2.522351 8.219892 9.336650 74.680403 9.487165 22.668936 3.694103 41.166567 40.667658 -32.691431 13.896244 1.411951 
2.338932 1.008190 1.565133 -88.354343 -3.276729 122.157421 -5.394782 -5.260984 -19.883631 -1.491404 -3.455502 16.791657 5.704874 13.786900 -35.706978 0.000000 -0.000000 0.000000 -3.220617 4.045586 -29.678683 -0.494047 -2.051138 22.489193 8.955606 -3.890750 -32.602822 0.000000 -0.000000 0.000000 -1.714158 -7.191447 24.379147 -4.553722 -5.746514 -20.434387 0.535708 -0.497636 -5.557684 -17.677424 14.426167 47.135056 -2.245964 33.406724 -43.102226 -13.063908 6.648614 -1.923352 -37.822249 0.069533 11.840193 -36.415904 -42.273297 67.589201 16.965525 -18.129037 -21.978555 3.022942 8.667821 9.730630 74.360889 10.201643 23.231547 2.519730 41.389827 39.145317 -32.177090 13.606773 1.577179 
